<svg id="Capa_1" enable-background="new 0 0 512 512" height="512" viewBox="0 0 512 512" width="512" xmlns="http://www.w3.org/2000/svg"><g><path d="m465.5 409.5v-402c0-4.142-3.358-7.5-7.5-7.5h-359c-30.911 0-52.5 25.701-52.5 62.5.001 3.778-.001 383.452 0 387 0 34.462 28.038 62.5 62.5 62.5h334c12.407 0 22.5-10.093 22.5-22.5 0-10.329-6.998-19.048-16.5-21.681v-36.637c9.502-2.634 16.5-11.353 16.5-21.682zm-15-21.21c-2.347-.833-4.871-1.29-7.5-1.29h-312v-372h319.5zm-389-325.79c0-24.883 11.561-42.614 29.5-46.634v124.783c0 4.142 3.358 7.5 7.5 7.5s7.5-3.358 7.5-7.5v-125.649h10v372h-7c-1.006 0-2.005.029-3 .076v-211.428c0-4.142-3.358-7.5-7.5-7.5s-7.5 3.358-7.5 7.5v214.005c-11.614 3.5-21.806 10.295-29.5 19.294zm381.5 434.5h-334c-26.191 0-47.5-21.309-47.5-47.5s21.309-47.5 47.5-47.5h334c4.136 0 7.5 3.364 7.5 7.5s-3.364 7.5-7.5 7.5c-3.506 0-204.353 0-204.411 0-4.142 0-7.5 3.358-7.5 7.5s3.358 7.5 7.5 7.5h195.411v35h-325c-9.649 0-17.5-7.851-17.5-17.5s7.851-17.5 17.5-17.5h94.589c4.142 0 7.5-3.358 7.5-7.5s-3.358-7.5-7.5-7.5h-94.589c-17.92 0-32.5 14.58-32.5 32.5s14.58 32.5 32.5 32.5h326.5 6 1.5c4.136 0 7.5 3.364 7.5 7.5s-3.364 7.5-7.5 7.5z"/><path d="m184.291 133.147c-.537 2.689-.983 5.396-1.314 8.11-.641 5.249 1.009 10.538 4.527 14.511 2.237 2.527 5.095 4.369 8.241 5.387l-10.691 88.445c-.497 4.112 2.434 7.849 6.546 8.346 3.17.392 7.273-1.762 8.346-6.546l5.577-46.137c15.372 31.739 47.91 53.68 85.478 53.68 9.667 0 19.207-1.45 28.353-4.31 3.954-1.236 6.157-5.443 4.92-9.396-1.236-3.954-5.446-6.155-9.396-4.92-7.696 2.406-15.73 3.626-23.877 3.626-44.063 0-79.911-35.848-79.911-79.911 0-.654.01-1.309.026-1.965h159.743c.016.655.052 1.311.052 1.965 0 23.496-10.281 45.705-28.206 60.932-3.157 2.682-3.542 7.415-.86 10.571 1.483 1.747 3.594 2.645 5.72 2.645 1.716 0 3.441-.586 4.852-1.784 10.485-8.907 18.762-19.828 24.468-31.951l6.18 47.032c.325 2.855 3.806 6.97 8.413 6.459 4.107-.54 6.999-4.306 6.459-8.413l-11.615-88.385c3.121-1.023 5.954-2.86 8.175-5.369 3.518-3.973 5.167-9.262 4.527-14.51-.331-2.714-.777-5.422-1.314-8.111 22.908-3.417 40.537-23.217 40.537-47.061 0-26.239-21.347-47.586-47.586-47.586-17.724 0-33.204 9.746-41.393 24.154-14.584-9.263-31.154-14.931-48.448-16.479-4.116-.375-7.77 2.676-8.139 6.802-.369 4.125 2.676 7.77 6.802 8.139 15.981 1.431 31.247 6.943 44.453 15.986-5.394 25.311 13.261 51.861 38.371 55.822.79 3.347 1.412 6.743 1.827 10.151.165 1.353-.473 2.304-.868 2.75-.411.464-1.315 1.242-2.756 1.242h-38.574l-3.444-21.523c-.654-4.09-4.498-6.877-8.591-6.221-4.09.654-6.875 4.5-6.221 8.591l3.064 19.153h-28.244v-20.338c0-4.142-3.358-7.5-7.5-7.5s-7.5 3.358-7.5 7.5v20.338h-28.245l3.064-19.153c.654-4.09-2.131-7.937-6.221-8.591-4.084-.653-7.936 2.131-8.591 6.221l-3.444 21.523c.089 0-36.481 0-38.574 0-1.441 0-2.345-.778-2.756-1.242-.395-.446-1.033-1.397-.868-2.75.416-3.408 1.038-6.804 1.827-10.151 25.121-4.356 43.543-29.425 38.369-55.836 8.856-6.071 18.582-10.528 28.98-13.266 4.006-1.055 6.398-5.157 5.344-9.162-1.055-4.006-5.16-6.399-9.162-5.344-10.856 2.858-21.076 7.333-30.498 13.326-8.189-14.402-23.666-24.143-41.385-24.143-26.239 0-47.586 21.347-47.586 47.586 0 23.844 17.629 43.644 40.537 47.061zm173.782-47.061c0-17.968 14.619-32.586 32.587-32.586s32.586 14.618 32.586 32.586-14.618 32.586-32.586 32.586-32.587-14.617-32.587-32.586zm-166.733-32.586c17.968 0 32.587 14.618 32.587 32.586s-14.619 32.586-32.587 32.586-32.586-14.618-32.586-32.586 14.618-32.586 32.586-32.586z"/><path d="m276.73 181.501c-2.652-3.183-7.382-3.613-10.563-.96-4.961 4.134-12.161 4.134-17.122 0-3.182-2.651-7.911-2.221-10.563.96-2.652 3.182-2.222 7.911.96 10.563 5.262 4.385 11.713 6.578 18.163 6.578 6.451 0 12.901-2.192 18.164-6.578 3.182-2.651 3.613-7.38.961-10.563z"/><path d="m342.558 192.072c3.182-2.652 3.612-7.381.96-10.563-2.652-3.183-7.382-3.613-10.563-.96-4.961 4.134-12.161 4.134-17.122 0-3.182-2.651-7.911-2.221-10.563.96-2.652 3.182-2.222 7.911.96 10.563 5.262 4.385 11.713 6.578 18.164 6.578s12.902-2.192 18.164-6.578z"/><path d="m280.979 228.322h20.043c4.142 0 7.5-3.358 7.5-7.5s-3.358-7.5-7.5-7.5h-20.043c-4.142 0-7.5 3.358-7.5 7.5s3.358 7.5 7.5 7.5z"/><path d="m407.5 282h-233c-6.893 0-12.5 5.607-12.5 12.5v35c0 6.893 5.607 12.5 12.5 12.5h233c6.893 0 12.5-5.607 12.5-12.5v-35c0-6.893-5.607-12.5-12.5-12.5zm-2.5 45h-228v-30h228z"/><path d="m351 357h-120c-4.142 0-7.5 3.358-7.5 7.5s3.358 7.5 7.5 7.5h120c4.142 0 7.5-3.358 7.5-7.5s-3.358-7.5-7.5-7.5z"/></g></svg>