<svg id="Capa_1" enable-background="new 0 0 512 512" height="512" viewBox="0 0 512 512" width="512" xmlns="http://www.w3.org/2000/svg"><g><path d="m480.5 0h-65c-8.284 0-15 6.716-15 15v371h-146.749c-14.274-18.818-36.864-31-62.251-31-43.067 0-78.105 35.038-78.105 78.105 0 43.503 35.038 78.895 78.105 78.895 25.693 0 48.522-12.601 62.765-32h165.775c41.608 0 75.46-33.852 75.46-75.46v-389.54c0-8.284-6.716-15-15-15zm-50 103h35v34h-35zm35-73v43h-35v-43zm-274 452c-26.525 0-48.105-21.934-48.105-48.895 0-26.525 21.58-48.105 48.105-48.105s48.105 21.58 48.105 48.105c0 26.961-21.58 48.895-48.105 48.895zm228.54-32h-152.257c1.182-5.446 1.822-11.095 1.822-16.895 0-5.877-.674-11.596-1.91-17.105h132.805c16.542 0 30-13.458 30-30v-219h35v237.54c0 25.066-20.394 45.46-45.46 45.46z"/><path d="m162.513 310.108 16.717-20.759c2.862-3.591 7.334-5.649 12.271-5.649s9.408 2.059 12.317 5.708l16.63 20.65c8.595 10.767 21.418 16.942 35.182 16.942h65.87c24.813 0 45-20.187 45-45v-74.7c0-9.655-3.022-18.874-8.748-26.67l-24.5-33.3c-4.845-6.586-11.375-11.638-18.75-14.758-.501-.235-1.01-.437-1.524-.612-5.049-1.923-10.454-2.96-15.968-2.96h-211.02c-5.516 0-10.922 1.038-15.973 2.962-.51.174-1.014.374-1.511.606-7.378 3.119-13.911 8.173-18.758 14.761l-24.508 33.311c-5.718 7.786-8.74 17.005-8.74 26.66v74.7c0 24.813 20.187 45 45 45h65.87c13.764 0 26.587-6.175 35.143-16.892zm-116.013-28.108v-74.7c0-3.223 1.01-6.301 2.912-8.891l21.849-29.696 19.519 31.236c2.846 4.554 7.733 7.053 12.735 7.053 2.714 0 5.463-.737 7.935-2.281 7.025-4.39 9.161-13.645 4.771-20.67l-15.654-25.051h181.866l-15.654 25.051c-4.39 7.025-2.254 16.28 4.771 20.67 2.473 1.545 5.22 2.281 7.935 2.281 5.001 0 9.89-2.5 12.735-7.053l19.519-31.236 21.841 29.686c1.91 2.6 2.92 5.678 2.92 8.9v74.701c0 8.271-6.729 15-15 15h-65.87c-4.588 0-8.866-2.063-11.777-5.708l-16.623-20.642c-8.586-10.772-21.608-16.95-35.729-16.95s-27.144 6.178-35.683 16.892l-16.71 20.749c-2.871 3.597-7.149 5.659-11.737 5.659h-65.871c-8.271 0-15-6.729-15-15z"/></g></svg>