<svg height="510pt" viewBox="0 0 510 510.58457" width="510pt" xmlns="http://www.w3.org/2000/svg"><path d="m32.734375 478.140625c43.347656 43.257813 113.53125 43.257813 156.878906 0l2.378907-2.371094 6.035156 6.035157c9.996094 9.992187 26.199218 9.992187 36.195312 0l30.175782-30.167969c9.976562-10.007813 9.976562-26.199219 0-36.207031l-6.035157-6.03125 149.769531-149.804688 6.035157 6.035156c9.996093 9.992188 26.199219 9.992188 36.195312 0l30.167969-30.167968c9.992188-9.996094 9.992188-26.199219 0-36.195313l-6.035156-6.035156 5.214844-5.222657c42.046874-43.523437 41.453124-112.710937-1.335938-155.507812-42.785156-42.796875-111.972656-43.402344-155.507812-1.367188l-5.214844 5.214844-6.03125-6.035156c-10.132813-9.667969-26.074219-9.667969-36.207032 0l-30.171874 30.164062c-9.996094 10-9.996094 26.203126 0 36.199219l6.039062 6.042969-149.800781 149.792969-6.035157-6.03125c-4.800781-4.804688-11.3125-7.5-18.101562-7.5-6.792969 0-13.304688 2.695312-18.105469 7.5l-30.164062 30.164062c-4.800781 4.800781-7.5 11.3125-7.5 18.101563 0 6.792968 2.699219 13.304687 7.5 18.105468l6.03125 6.03125-2.371094 2.382813c-43.257813 43.347656-43.257813 113.53125 0 156.875zm219.597656-50.644531c1.601563 1.601562 2.503907 3.773437 2.503907 6.039062s-.902344 4.4375-2.503907 6.035156l-30.175781 30.167969c-3.332031 3.328125-8.734375 3.328125-12.066406 0l-6.03125-6.035156 42.238281-42.238281zm216.164063-216.164063c3.332031 3.332031 3.332031 8.730469 0 12.066407l-30.164063 30.164062c-3.378906 3.21875-8.6875 3.21875-12.066406 0l-6.03125-6.035156 42.230469-42.230469zm-.851563-168.109375c36.597657 36.679688 36.597657 96.066406 0 132.746094l-11.210937 11.253906-54.273438 54.273438-161.886718 161.859375-54.296876 54.304687-8.414062 8.40625c-23.710938 23.714844-58.273438 32.980469-90.667969 24.304688-32.394531-8.675782-57.695312-33.976563-66.378906-66.367188-8.683594-32.394531.574219-66.957031 24.285156-90.671875l251.734375-251.734375 27.117188-27.152344 11.238281-11.238281c36.683594-36.628906 96.101563-36.632812 132.789063-.007812zm-204.332031 47.445313-6.03125-6.03125c-3.332031-3.332031-3.332031-8.734375 0-12.066407l30.183594-30.164062c3.375-3.230469 8.691406-3.230469 12.066406 0l6.023438 6.03125-21.085938 21.09375zm-222.171875 210.117187c-3.332031-3.332031-3.332031-8.734375 0-12.066406l30.164063-30.171875c1.601562-1.605469 3.773437-2.503906 6.039062-2.503906s4.4375.898437 6.035156 2.503906l6.035156 6.03125-42.242187 42.242187zm0 0"/><path d="m143.148438 336.113281c-.167969-.515625-.414063-1.003906-.726563-1.449219-1.578125-2.394531-4.25-3.84375-7.117187-3.859374-1.117188.050781-2.222657.292968-3.257813.71875-1.035156.414062-1.976563 1.03125-2.773437 1.808593-1.632813 1.582031-2.554688 3.757813-2.5625 6.03125.058593 1.117188.300781 2.21875.726562 3.253907.8125 2.109374 2.480469 3.777343 4.589844 4.589843 1.035156.425781 2.136718.671875 3.253906.726563 3.453125 0 6.558594-2.105469 7.839844-5.308594.421875-1.035156.667968-2.136719.726562-3.253906-.027344-.542969-.085937-1.089844-.179687-1.628906-.101563-.5625-.273438-1.109376-.519531-1.628907zm0 0"/><path d="m106.90625 372.3125c-.171875-.515625-.414062-1.003906-.714844-1.453125-1.589844-2.386719-4.257812-3.832031-7.128906-3.855469-1.117188.050782-2.222656.296875-3.257812.726563-3.207032 1.28125-5.304688 4.386719-5.300782 7.839843.054688 1.117188.296875 2.214844.71875 3.253907.820313 2.105469 2.484375 3.769531 4.589844 4.589843 1.039062.417969 2.140625.664063 3.261719.726563 3.453125.003906 6.558593-2.101563 7.832031-5.308594.425781-1.039062.671875-2.140625.726562-3.261719-.027343-.546874-.085937-1.089843-.179687-1.628906-.109375-.566406-.292969-1.113281-.546875-1.628906zm0 0"/><path d="m179.347656 372.3125c-.167968-.515625-.410156-1.003906-.71875-1.453125-1.589844-2.386719-4.257812-3.832031-7.125-3.855469-1.121094.054688-2.222656.296875-3.261718.726563-1.03125.410156-1.972657 1.027343-2.761719 1.808593-1.636719 1.582032-2.558594 3.757813-2.5625 6.03125.054687 1.117188.300781 2.21875.726562 3.253907.8125 2.105469 2.476563 3.773437 4.582031 4.589843 1.039063.417969 2.140626.664063 3.261719.726563 2.269531-.011719 4.445313-.933594 6.03125-2.5625.777344-.796875 1.394531-1.738281 1.808594-2.773437.425781-1.035157.667969-2.140626.71875-3.257813-.027344-.546875-.089844-1.089844-.179687-1.632813-.101563-.554687-.277344-1.09375-.519532-1.601562zm0 0"/><path d="m143.148438 408.519531c-.167969-.519531-.414063-1.007812-.726563-1.453125-1.582031-2.390625-4.25-3.835937-7.117187-3.855468-1.117188.046874-2.222657.292968-3.257813.714843-1.03125.421875-1.972656 1.035157-2.773437 1.8125-1.632813 1.582031-2.554688 3.757813-2.5625 6.03125.058593 1.121094.304687 2.222657.726562 3.261719.417969 1.03125 1.03125 1.972656 1.808594 2.773438.796875.78125 1.742187 1.394531 2.78125 1.808593 1.035156.425781 2.136718.671875 3.253906.722657 2.273438-.003907 4.445312-.929688 6.03125-2.558594.777344-.796875 1.394531-1.738282 1.808594-2.773438.421875-1.039062.667968-2.140625.726562-3.257812-.027344-.546875-.085937-1.09375-.179687-1.632813-.101563-.550781-.277344-1.085937-.519531-1.59375zm0 0"/><path d="m371.132812 103.539062c.800782.777344 1.746094 1.390626 2.78125 1.808594 1.035157.425782 2.132813.671875 3.25.722656 2.277344-.003906 4.453126-.925781 6.035157-2.558593.777343-.796875 1.390625-1.738281 1.808593-2.773438.421876-1.039062.667969-2.140625.726563-3.257812-.027344-.546875-.089844-1.085938-.179687-1.625-.105469-.566407-.289063-1.113281-.546876-1.628907-.171874-.519531-.414062-1.007812-.726562-1.457031-1.582031-2.390625-4.25-3.835937-7.117188-3.859375-1.117187.058594-2.21875.304688-3.257812.726563-1.035156.414062-1.976562 1.03125-2.773438 1.808593-1.628906 1.585938-2.550781 3.761719-2.558593 6.035157.054687 1.113281.300781 2.214843.722656 3.25.421875 1.046875 1.046875 2 1.835937 2.808593zm0 0"/><path d="m333.117188 136.960938c.820312 2.105468 2.484374 3.773437 4.589843 4.59375 1.039063.417968 2.140625.664062 3.261719.722656 3.453125.007812 6.558594-2.097656 7.832031-5.304688.425781-1.039062.671875-2.140625.726563-3.261718-.027344-.546876-.089844-1.089844-.179688-1.628907-.105468-.566406-.289062-1.117187-.546875-1.628906-.164062-.519531-.40625-1.007813-.714843-1.453125-1.589844-2.386719-4.257813-3.832031-7.128907-3.855469-1.117187.054688-2.21875.296875-3.257812.714844-1.035157.421875-1.976563 1.039063-2.773438 1.820313-1.632812 1.582031-2.554687 3.757812-2.558593 6.03125.0625 1.117187.316406 2.21875.75 3.25zm0 0"/><path d="m407.339844 139.746094c.800781.773437 1.742187 1.386718 2.773437 1.808594 1.039063.417968 2.140625.664062 3.257813.722656 3.453125 0 6.558594-2.101563 7.84375-5.304688.421875-1.039062.667968-2.140625.726562-3.261718-.035156-.546876-.097656-1.089844-.1875-1.628907-.109375-.566406-.289062-1.113281-.539062-1.628906-.167969-.519531-.414063-1.007813-.726563-1.453125-1.582031-2.386719-4.25-3.832031-7.117187-3.855469-1.121094.054688-2.226563.296875-3.265625.714844-1.03125.421875-1.972657 1.039063-2.765625 1.820313-1.636719 1.582031-2.558594 3.757812-2.558594 6.03125.050781 1.117187.296875 2.21875.722656 3.25.421875 1.039062 1.046875 1.984374 1.835938 2.785156zm0 0"/><path d="m371.132812 175.941406c.800782.777344 1.746094 1.394532 2.78125 1.808594 1.035157.429688 2.132813.675781 3.25.726562 3.457032.007813 6.566407-2.09375 7.84375-5.308593.421876-1.035157.667969-2.132813.726563-3.25-.027344-.546875-.085937-1.089844-.179687-1.628907-.105469-.566406-.289063-1.117187-.546876-1.628906-.167968-.519531-.414062-1.007812-.726562-1.453125-1.578125-2.394531-4.246094-3.839843-7.117188-3.855469-1.117187.046876-2.222656.292969-3.257812.714844-1.03125.421875-1.972656 1.035156-2.773438 1.808594-1.628906 1.585938-2.550781 3.761719-2.558593 6.035156.054687 1.117188.300781 2.222656.722656 3.257813.425781 1.039062 1.046875 1.980469 1.835937 2.773437zm0 0"/></svg>